<?xml version="1.0" encoding="UTF-8"?>
<svg width="912px" height="166px" viewBox="0 0 912 166" version="1.1" xmlns="http://www.w3.org/2000/svg" xmlns:xlink="http://www.w3.org/1999/xlink">
    <title>Attach file</title>
    <defs>
        <rect id="path-1" x="0" y="0" width="912" height="166" rx="4"></rect>
        <mask id="mask-2" maskContentUnits="userSpaceOnUse" maskUnits="objectBoundingBox" x="0" y="0" width="912" height="166" fill="white">
            <use xlink:href="#path-1"></use>
        </mask>
    </defs>
    <g id="UPLOAD-FILE" stroke="none" stroke-width="1" fill="none" fill-rule="evenodd">
        <g id="Upload-file-Page" transform="translate(-245.000000, -353.000000)">
            <g id="UPLOAD-ASSET" transform="translate(0.000000, 196.000000)">
                <g id="Attach-file" transform="translate(245.000000, 157.000000)">
                    <rect id="Background-Color" fill="#EBEDF0" x="0" y="0" width="912" height="166" rx="4"></rect>
                    <use id="Border-Color" stroke="#EAC445" mask="url(#mask-2)" stroke-width="2" stroke-dasharray="2,2" xlink:href="#path-1"></use>
                    <g id="image-+-Info" transform="translate(156.000000, 49.166667)">
                        <text id="Click-or-drag-a-digi" font-family="CenturyGothic, Century Gothic" font-size="24" font-weight="normal" line-spacing="22" fill="#000000">
                            <tspan x="0" y="75.3333333">Click or drag a digital asset to this area to upload it.</tspan>
                        </text>
                        <g id="icon" transform="translate(283.000000, 0.000000)" fill="#7D8FA0">
                            <path d="M27.4125,8.55666667 C26.4491667,3.66916667 22.1566667,-8.8817842e-16 17,-8.8817842e-16 C12.9058333,-8.8817842e-16 9.35,2.32333333 7.57916667,5.72333333 C3.315,6.17666667 0,9.78916667 0,14.1666667 C0,18.8558333 3.81083333,22.6666667 8.5,22.6666667 L26.9166667,22.6666667 C30.8266667,22.6666667 34,19.4933333 34,15.5833333 C34,11.8433333 31.0958333,8.81166667 27.4125,8.55666667 Z M19.8333333,12.75 L19.8333333,18.4166667 L14.1666667,18.4166667 L14.1666667,12.75 L9.91666667,12.75 L16.5041667,6.1625 C16.7875,5.87916667 17.2266667,5.87916667 17.51,6.1625 L24.0833333,12.75 L19.8333333,12.75 Z" id="↳-icon-Color"></path>
                        </g>
                    </g>
                </g>
            </g>
        </g>
    </g>
</svg>