<?xml version="1.0" encoding="UTF-8"?>
<svg width="1440px" height="301px" viewBox="0 0 1440 301" version="1.1" xmlns="http://www.w3.org/2000/svg" xmlns:xlink="http://www.w3.org/1999/xlink">
    <title>Cloud Bg</title>
    <g id="ASSET-HISTORY" stroke="none" stroke-width="1" fill="none" fill-rule="evenodd">
        <g id="AssetHistory-Page" transform="translate(0.000000, -205.000000)">
            <g id="PaginationTable" transform="translate(0.000000, 178.535210)">
                <g id="Cloud-Bg" transform="translate(0.000000, 26.464790)">
                    <path d="M97.2502005,177 C87.7364353,177 80,169.216437 80,159.64892 C80,150.093538 87.7364353,142.309975 97.2502005,142.309975 C102.490233,142.309975 107.388066,144.676445 110.680423,148.808666 L114.491356,153.60987 L115.061187,147.498006 C116.769172,128.962174 132.012905,115 150.512814,115 C164.830947,115 177.707921,123.561768 183.308244,136.827653 L184.514236,139.678036 L187.016668,137.853123 C190.693434,135.196912 195.024451,133.790683 199.524307,133.790683 C211.368651,133.790683 221,143.475007 221,155.399892 C221,167.314159 211.368651,177 199.524307,177 L97.2502005,177 Z" id="Fill-1" fill="#EAC445" opacity="0.189894903"></path>
                    <path d="M32.7876151,117 C14.7047138,117 0,102.311664 0,84.2568325 C0,66.2249027 14.7047138,51.5365663 32.7876151,51.5365663 C42.747394,51.5365663 52.05675,56.0023244 58.3145628,63.8002251 L65.5580383,72.8605613 L66.6411213,61.3268821 C69.8875049,26.3479729 98.8614072,0 134.024355,0 C161.238964,0 185.714347,16.1568839 196.358932,41.1908933 L198.651171,46.5698417 L203.407567,43.1260551 C210.396031,38.1135279 218.628035,35.459837 227.180952,35.459837 C249.693605,35.459837 268,53.7350933 268,76.2385065 C268,98.721881 249.693605,117 227.180952,117 L32.7876151,117 Z" id="Fill-1" fill="#EAC445" opacity="0.197521391"></path>
                    <path d="M1288.2502,301 C1278.73644,301 1271,293.216437 1271,283.64892 C1271,274.093538 1278.73644,266.309975 1288.2502,266.309975 C1293.49023,266.309975 1298.38807,268.676445 1301.68042,272.808666 L1305.49136,277.60987 L1306.06119,271.498006 C1307.76917,252.962174 1323.0129,239 1341.51281,239 C1355.83095,239 1368.70792,247.561768 1374.30824,260.827653 L1375.51424,263.678036 L1378.01667,261.853123 C1381.69343,259.196912 1386.02445,257.790683 1390.52431,257.790683 C1402.36865,257.790683 1412,267.475007 1412,279.399892 C1412,291.314159 1402.36865,301 1390.52431,301 L1288.2502,301 Z" id="Fill-1" fill="#B3E5FC" opacity="0.202101935"></path>
                    <path d="M1204.78762,279 C1186.70471,279 1172,264.311664 1172,246.256832 C1172,228.224903 1186.70471,213.536566 1204.78762,213.536566 C1214.74739,213.536566 1224.05675,218.002324 1230.31456,225.800225 L1237.55804,234.860561 L1238.64112,223.326882 C1241.8875,188.347973 1270.86141,162 1306.02436,162 C1333.23896,162 1357.71435,178.156884 1368.35893,203.190893 L1370.65117,208.569842 L1375.40757,205.126055 C1382.39603,200.113528 1390.62804,197.459837 1399.18095,197.459837 C1421.69361,197.459837 1440,215.735093 1440,238.238507 C1440,260.721881 1421.69361,279 1399.18095,279 L1204.78762,279 Z" id="Fill-1" fill="#EAC445" opacity="0.198381696"></path>
                </g>
            </g>
        </g>
    </g>
</svg>