<?xml version="1.0" encoding="UTF-8"?>
<svg width="1440px" height="355px" viewBox="0 0 1440 355" version="1.1" xmlns="http://www.w3.org/2000/svg" xmlns:xlink="http://www.w3.org/1999/xlink">
    <title>Footer</title>
    <g id="STATISTICS" stroke="none" stroke-width="1" fill="none" fill-rule="evenodd">
        <g id="Statistics-page" transform="translate(0.000000, -669.000000)">
            <g id="Footer" transform="translate(0.000000, 669.000000)">
                <path d="M0,63.5913043 C239.90625,21.1971014 479.71875,0 719.4375,0 C959.15625,0 1199.34375,21.1971014 1440,63.5913043 L1440,355 L0,355 L0,63.5913043 Z" id="Rectangle" fill="#EAC445" opacity="0.2"></path>
                <text id="Copyright-©2022---Al" font-family="CaviarDreams, Caviar Dreams" font-size="16" font-weight="normal" fill="#302F2F">
                    <tspan x="578.34375" y="314">Copyright ©2022 - All Rights Reserved.</tspan>
                </text>
                <text id="Neatbox.-A-cloud-sto" font-family="CaviarDreams, Caviar Dreams" font-size="16" font-weight="normal" fill="#302F2F">
                    <tspan x="323.433594" y="261">Neatbox. A cloud storage that relies on a distributed storage system and on blockchain technologies - Lisk .</tspan>
                </text>
                <g id="Secure-Item" transform="translate(610.000000, 163.000000)">
                    <rect id="Background" x="0" y="0" width="220" height="82"></rect>
                    <rect id="→-Border" x="219" y="0" width="1" height="82"></rect>
                    <rect id="←-Border" x="0" y="0" width="1" height="82"></rect>
                    <text id="NEATBOX" font-family="CenturyGothic, Century Gothic" font-size="14" font-weight="normal" fill="#238FCD">
                        <tspan x="52.8558108" y="35.609375">NEATBOX</tspan>
                    </text>
                    <path d="M164.011976,16.015625 L164.011976,17.296875 L44.1317365,17.296875 C37.2199094,17.296875 31.6167665,22.7464091 31.6167665,29.46875 L31.6167665,29.46875 L31.6167665,52.53125 C31.6167665,59.2535909 37.2199094,64.703125 44.1317365,64.703125 L44.1317365,64.703125 L164.011976,64.703125 L164.011976,65.984375 L44.1317365,65.984375 C36.4923487,65.984375 30.2994012,59.9612058 30.2994012,52.53125 L30.2994012,52.53125 L30.2994012,29.46875 C30.2994012,22.0387942 36.4923487,16.015625 44.1317365,16.015625 L44.1317365,16.015625 L164.011976,16.015625 Z M169.041389,21 C180.086723,21 189.041389,29.9542667 189.041389,40.9996 C189.041389,52.0449333 180.086589,61 169.041389,61 C157.996189,61 149.042189,52.0444 149.042189,40.9996 C149.042189,29.9548 157.996189,21 169.041389,21 Z M50.3959005,40.9406528 C51.2261697,40.9406528 52.0378386,41.0370701 52.8309316,41.2299078 C53.6240245,41.4227454 54.3179705,41.6999453 54.9127902,42.0615159 L53.983389,44.2851636 C52.7813575,43.6222843 51.579344,43.2908496 50.3773124,43.2908496 C49.5346512,43.2908496 48.9119586,43.4234235 48.5092161,43.6885752 C48.1064736,43.9537269 47.9051053,44.3032399 47.9051053,44.7371246 C47.9051053,45.1710092 48.1374533,45.4934048 48.6021562,45.7043209 C49.0668591,45.9152371 49.7762949,46.123137 50.7304849,46.328027 C51.7218511,46.5570217 52.53352,46.786013 53.165516,47.0150076 C53.7975119,47.2440023 54.3396572,47.6055674 54.791968,48.0997139 C55.2442789,48.5938603 55.4704309,49.2627558 55.4704309,50.1064204 C55.4704309,50.8295615 55.2628667,51.4894178 54.8477321,52.0860093 C54.4325975,52.6826007 53.809905,53.1556484 52.9796358,53.5051666 C52.1493665,53.8546848 51.1394274,54.0294412 49.9497879,54.0294412 C48.9212455,54.0294412 47.9267961,53.8938543 46.9664101,53.6226764 C46.0060241,53.3514985 45.2346288,52.9989725 44.6522012,52.5650878 L45.6745425,50.3595185 C46.232186,50.7572461 46.8951522,51.0766286 47.663461,51.3176757 C48.4317698,51.5587227 49.2000671,51.6792444 49.9683759,51.6792444 C50.8234293,51.6792444 51.4554158,51.5557097 51.8643543,51.3086365 C52.2732929,51.0615632 52.4777591,50.7331416 52.4777591,50.3233616 C52.4777591,50.0220528 52.3569382,49.7719703 52.1152927,49.5731065 C51.8736471,49.3742427 51.5638498,49.2145514 51.1858915,49.0940279 C50.8079331,48.9735044 50.2967676,48.8409305 49.6523795,48.6963023 C48.6610133,48.4673076 47.8493444,48.2383164 47.2173484,48.0093217 C46.5853525,47.780327 46.0432072,47.4127358 45.5908964,46.906537 C45.1385855,46.4003382 44.9124335,45.7254167 44.9124335,44.8817521 C44.9124335,44.1465586 45.1168997,43.4806762 45.5258383,42.8840848 C45.9347769,42.2874933 46.5512735,41.8144456 47.3753466,41.4649274 C48.1994198,41.1154092 49.206261,40.9406528 50.3959005,40.9406528 Z M76.8342661,40.9406528 C77.9619451,40.9406528 78.9811782,41.1334875 79.8919959,41.5191627 C80.8028137,41.904838 81.568013,42.4592379 82.1876169,43.182379 L80.2544624,44.9179089 C79.3746249,43.9296161 78.2841384,43.4354771 76.9829703,43.4354771 C76.1774852,43.4354771 75.4587555,43.6072205 74.8267595,43.9507125 C74.1947636,44.2942046 73.7021859,44.7732784 73.3490116,45.3879483 C72.9958374,46.0026182 72.819253,46.7016441 72.819253,47.485047 C72.819253,48.2684499 72.9958374,48.9674758 73.3490116,49.5821457 C73.7021859,50.1968156 74.1947636,50.6758894 74.8267595,51.0193815 C75.4587555,51.3628735 76.1774852,51.5346169 76.9829703,51.5346169 C78.2841384,51.5346169 79.3746249,51.0344518 80.2544624,50.0341066 L82.1876169,51.7696366 C81.568013,52.5048301 80.7997157,53.065256 79.8827019,53.4509313 C78.9656882,53.8366065 77.9433571,54.0294412 76.815678,54.0294412 C75.4897257,54.0294412 74.2908102,53.7492283 73.2188955,53.1887939 C72.1469808,52.6283596 71.3043321,51.8509945 70.6909243,50.8566755 C70.0775164,49.8623565 69.7708171,48.7384916 69.7708171,47.485047 C69.7708171,46.2316024 70.0775164,45.1077375 70.6909243,44.1134185 C71.3043321,43.1190995 72.1469808,42.3417344 73.2188955,41.7813001 C74.2908102,41.2208657 75.4959217,40.9406528 76.8342661,40.9406528 Z M87.3117154,41.157594 L87.3117154,48.1358707 C87.3117154,50.4017129 88.278283,51.5346169 90.2114471,51.5346169 C91.153245,51.5346169 91.8719747,51.26043 92.3676578,50.712048 C92.8633409,50.163666 93.1111787,49.3049489 93.1111787,48.1358707 L93.1111787,41.157594 L96.0852625,41.157594 L96.0852625,48.2443414 C96.0852625,50.1004035 95.567901,51.5285858 94.5331626,52.528931 C93.4984241,53.5292762 92.0516707,54.0294412 90.192859,54.0294412 C88.3340474,54.0294412 86.887294,53.5292762 85.8525555,52.528931 C84.8178171,51.5285858 84.3004556,50.1004035 84.3004556,48.2443414 L84.3004556,41.157594 L87.3117154,41.157594 Z M67.6765664,41.157594 L67.6765664,43.5077908 L60.8361737,43.5077908 L60.8361737,46.2557133 L66.8772814,46.2557133 L66.8772814,48.5335964 L60.8361737,48.5335964 L60.8361737,51.4623032 L67.9182107,51.4623032 L67.9182107,53.8125 L57.843502,53.8125 L57.843502,41.157594 L67.6765664,41.157594 Z M105.001318,41.157594 C106.153781,41.157594 107.154426,41.3444027 108.003284,41.7180256 C108.852141,42.0916485 109.505813,42.621944 109.96432,43.308928 C110.422827,43.9959121 110.652077,44.8094336 110.652077,45.749517 C110.652077,46.6896005 110.419729,47.500109 109.955026,48.1810668 C109.490323,48.8620247 108.830455,49.3832811 107.975402,49.7448516 L110.893721,53.8125 L107.659405,53.8125 L105.150022,50.2872048 L102.380407,50.2872048 L102.380407,53.8125 L99.3691467,53.8125 L99.3691467,41.157594 L105.001318,41.157594 Z M123.174209,41.157594 L123.174209,43.5077908 L116.333816,43.5077908 L116.333816,46.2557133 L122.374924,46.2557133 L122.374924,48.5335964 L116.333816,48.5335964 L116.333816,51.4623032 L123.415853,51.4623032 L123.415853,53.8125 L113.341144,53.8125 L113.341144,41.157594 L123.174209,41.157594 Z M169.041789,29.9476 L158.017389,34.6392 C158.017389,34.6392 158.750456,52.0514667 169.041789,52.0514667 C179.220996,52.0514667 180.048857,35.0156703 180.065651,34.6453269 L180.065923,34.6392 L169.041789,29.9476 Z M104.834026,43.5439477 L102.380407,43.5439477 L102.380407,47.9550864 L104.834026,47.9550864 C105.738647,47.9550864 106.426397,47.7622516 106.897296,47.3765764 C107.368195,46.9909011 107.603641,46.4485534 107.603641,45.749517 C107.603641,45.0384283 107.368195,44.4930676 106.897296,44.1134185 C106.426397,43.7337694 105.738647,43.5439477 104.834026,43.5439477 Z M174.246989,36.8264 L175.643656,38.6622667 L167.818589,46.6145333 L167.812723,46.606 L167.804189,46.6145333 L163.440723,41.7510667 L165.259256,40.1513333 L167.887123,42.0602667 L174.246989,36.8264 Z" id="Secure" fill="#238FCD"></path>
                </g>
            </g>
        </g>
    </g>
</svg>