<?xml version="1.0" encoding="UTF-8"?>
<svg width="603px" height="41px" viewBox="0 0 603 41" version="1.1" xmlns="http://www.w3.org/2000/svg" xmlns:xlink="http://www.w3.org/1999/xlink">
    <title>Search Bar</title>
    <g id="USER-PROFILE" stroke="none" stroke-width="1" fill="none" fill-rule="evenodd">
        <g id="DashboardUSERprofile" transform="translate(-734.000000, -2914.000000)">
            <g id="PaginationTable" transform="translate(0.000000, 2831.464790)">
                <g id="Search-Bar" transform="translate(734.000000, 82.535210)">
                    <rect id="Rectangle-3" stroke-opacity="0.38" stroke="#000000" fill="#FFFFFF" x="0.5" y="0.5" width="601.206491" height="40" rx="8"></rect>
                    <path d="M550.403782,0 L592.746103,0 C598.26895,3.89074334e-15 602.746103,4.4771525 602.746103,10 L602.746103,31 C602.746103,36.5228475 598.26895,41 592.746103,41 L550.403782,41 L550.403782,41 L550.403782,0 Z" id="Rectangle-3" fill="#EAC445"></path>
                    <text id="Search…" opacity="0.299316406" font-family="CenturyGothic, Century Gothic" font-size="18" font-weight="normal" fill="#000000" fill-opacity="0.54">
                        <tspan x="22.5553284" y="28.5789474">Search Asset…</tspan>
                    </text>
                    <g id="search-outline" transform="translate(567.671352, 11.868421)" stroke="#000000" stroke-width="3">
                        <path d="M7.28475594,0 C3.26149633,0 0,3.26066304 0,7.28289474 C0,11.3051264 3.26149633,14.5657895 7.28475594,14.5657895 C11.3080156,14.5657895 14.5695119,11.3051264 14.5695119,7.28289474 C14.5692558,3.26076909 11.3079095,0.000256015127 7.28475594,0 Z" id="Shape"></path>
                        <line x1="12.4110657" y1="12.4078947" x2="17.8071812" y2="17.8026316" id="Shape" stroke-linecap="round"></line>
                    </g>
                </g>
            </g>
        </g>
    </g>
</svg>