<?xml version="1.0" encoding="UTF-8"?>
<svg width="589px" height="282px" viewBox="0 0 589 282" version="1.1" xmlns="http://www.w3.org/2000/svg" xmlns:xlink="http://www.w3.org/1999/xlink">
    <title>Summary</title>
    <defs>
        <rect id="path-1" x="0" y="0" width="587" height="1" rx="0.5"></rect>
        <filter x="-12.8%" y="-4300.0%" width="125.6%" height="15100.0%" filterUnits="objectBoundingBox" id="filter-2">
            <feMorphology radius="1" operator="erode" in="SourceAlpha" result="shadowSpreadOuter1"></feMorphology>
            <feOffset dx="0" dy="32" in="shadowSpreadOuter1" result="shadowOffsetOuter1"></feOffset>
            <feGaussianBlur stdDeviation="20" in="shadowOffsetOuter1" result="shadowBlurOuter1"></feGaussianBlur>
            <feColorMatrix values="0 0 0 0 0.0247117076   0 0 0 0 0.0878230855   0 0 0 0 0.286127329  0 0 0 0.12 0" type="matrix" in="shadowBlurOuter1" result="shadowMatrixOuter1"></feColorMatrix>
            <feOffset dx="0" dy="0" in="SourceAlpha" result="shadowOffsetOuter2"></feOffset>
            <feGaussianBlur stdDeviation="0.5" in="shadowOffsetOuter2" result="shadowBlurOuter2"></feGaussianBlur>
            <feColorMatrix values="0 0 0 0 0.0247117076   0 0 0 0 0.0878230855   0 0 0 0 0.286127329  0 0 0 0.06 0" type="matrix" in="shadowBlurOuter2" result="shadowMatrixOuter2"></feColorMatrix>
            <feMerge>
                <feMergeNode in="shadowMatrixOuter1"></feMergeNode>
                <feMergeNode in="shadowMatrixOuter2"></feMergeNode>
            </feMerge>
        </filter>
    </defs>
    <g id="UPLOAD-FILE" stroke="none" stroke-width="1" fill="none" fill-rule="evenodd">
        <g id="Upload-file-Page" transform="translate(-383.000000, -993.000000)">
            <g id="personalization-asset-info" transform="translate(248.000000, 598.000000)">
                <g id="Summary" transform="translate(136.000000, 395.000000)">
                    <g id="Card" transform="translate(0.000000, 280.000000)">
                        <g id="Shadow">
                            <use fill="black" fill-opacity="1" filter="url(#filter-2)" xlink:href="#path-1"></use>
                            <use fill="#FFFFFF" fill-rule="evenodd" xlink:href="#path-1"></use>
                        </g>
                        <rect id="Background" fill="#FFFFFF" x="0" y="0" width="587" height="1" rx="0.5"></rect>
                        <rect id="Border-Color" x="0" y="0" width="587" height="1" rx="0.5"></rect>
                    </g>
                    <g id="Guarantee-Info" transform="translate(87.000000, 72.000000)">
                        <rect id="Boundary" x="0" y="0" width="575" height="40"></rect>
                        <text id="Sentence" font-family="CenturyGothic, Century Gothic" font-size="16" font-weight="normal" line-spacing="24" fill="#6A767B">
                            <tspan x="72" y="24">Uploading a digital asset requires 100 tokens.</tspan>
                        </text>
                        <g id="icon" transform="translate(36.000000, 10.000000)" fill="#7D8FA0">
                            <path d="M14,7 L13,7 L13,5 C13,2.24 10.76,0 8,0 C5.24,0 3,2.24 3,5 L3,7 L2,7 C0.9,7 0,7.9 0,9 L0,19 C0,20.1 0.9,21 2,21 L14,21 C15.1,21 16,20.1 16,19 L16,9 C16,7.9 15.1,7 14,7 L14,7 Z M8,16 C6.9,16 6,15.1 6,14 C6,12.9 6.9,12 8,12 C9.1,12 10,12.9 10,14 C10,15.1 9.1,16 8,16 L8,16 Z M11.1,7 L4.9,7 L4.9,5 C4.9,3.29 6.29,1.9 8,1.9 C9.71,1.9 11.1,3.29 11.1,5 L11.1,7 L11.1,7 Z" id="↳-icon-Color"></path>
                        </g>
                    </g>
                    <g id="Button" transform="translate(67.000000, 0.000000)">
                        <rect id="Button-Shadow" x="0" y="14" width="453" height="48" rx="24"></rect>
                        <rect id="Button-Color" fill="#EAC445" x="0" y="0" width="511" height="62" rx="24"></rect>
                        <text id="Button-Text" fill-rule="nonzero" font-family="CenturyGothic, Century Gothic" font-size="24" font-weight="normal" letter-spacing="1.71428571" fill="#000000">
                            <tspan x="117.774659" y="41">VALID DIGITAL ASSET</tspan>
                        </text>
                    </g>
                </g>
            </g>
        </g>
    </g>
</svg>