<?xml version="1.0" encoding="UTF-8"?>
<svg width="1031px" height="528px" viewBox="0 0 1031 528" version="1.1" xmlns="http://www.w3.org/2000/svg" xmlns:xlink="http://www.w3.org/1999/xlink">
    <title>TRANSFER OWNERSHIP ASSET</title>
    <defs>
        <rect id="path-1" x="0" y="0" width="587" height="1" rx="0.5"></rect>
        <filter x="-12.8%" y="-4300.0%" width="125.6%" height="15100.0%" filterUnits="objectBoundingBox" id="filter-2">
            <feMorphology radius="1" operator="erode" in="SourceAlpha" result="shadowSpreadOuter1"></feMorphology>
            <feOffset dx="0" dy="32" in="shadowSpreadOuter1" result="shadowOffsetOuter1"></feOffset>
            <feGaussianBlur stdDeviation="20" in="shadowOffsetOuter1" result="shadowBlurOuter1"></feGaussianBlur>
            <feColorMatrix values="0 0 0 0 0.0247117076   0 0 0 0 0.0878230855   0 0 0 0 0.286127329  0 0 0 0.12 0" type="matrix" in="shadowBlurOuter1" result="shadowMatrixOuter1"></feColorMatrix>
            <feOffset dx="0" dy="0" in="SourceAlpha" result="shadowOffsetOuter2"></feOffset>
            <feGaussianBlur stdDeviation="0.5" in="shadowOffsetOuter2" result="shadowBlurOuter2"></feGaussianBlur>
            <feColorMatrix values="0 0 0 0 0.0247117076   0 0 0 0 0.0878230855   0 0 0 0 0.286127329  0 0 0 0.06 0" type="matrix" in="shadowBlurOuter2" result="shadowMatrixOuter2"></feColorMatrix>
            <feMerge>
                <feMergeNode in="shadowMatrixOuter1"></feMergeNode>
                <feMergeNode in="shadowMatrixOuter2"></feMergeNode>
            </feMerge>
        </filter>
        <rect id="path-3" x="0" y="0" width="915" height="64.6428571" rx="10"></rect>
        <filter x="-9.7%" y="-132.3%" width="119.3%" height="373.8%" filterUnits="objectBoundingBox" id="filter-5">
            <feMorphology radius="4.5" operator="dilate" in="SourceAlpha" result="shadowSpreadOuter1"></feMorphology>
            <feOffset dx="0" dy="3" in="shadowSpreadOuter1" result="shadowOffsetOuter1"></feOffset>
            <feGaussianBlur stdDeviation="24.5" in="shadowOffsetOuter1" result="shadowBlurOuter1"></feGaussianBlur>
            <feComposite in="shadowBlurOuter1" in2="SourceAlpha" operator="out" result="shadowBlurOuter1"></feComposite>
            <feColorMatrix values="0 0 0 0 0   0 0 0 0 0   0 0 0 0 0  0 0 0 0.06 0" type="matrix" in="shadowBlurOuter1"></feColorMatrix>
        </filter>
    </defs>
    <g id="TRANSFER-FILE_SELECT-ASSET" stroke="none" stroke-width="1" fill="none" fill-rule="evenodd">
        <g id="TRANFER-OWNERSHIP-FILE" transform="translate(-210.000000, -280.000000)">
            <g id="TRANSFER-OWNERSHIP-ASSET" transform="translate(268.000000, 280.000000)">
                <g id="personalization-asset-info" transform="translate(559.000000, 41.000000)"></g>
                <g id="Text-Field---Label-Copy" transform="translate(0.000000, 19.000000)">
                    <g id="Email" transform="translate(0.000000, 36.000000)">
                        <rect id="Background-Color" fill="#FFFFFF" x="0" y="0" width="918" height="48" rx="4"></rect>
                        <rect id="Border-Color" stroke="#EAC445" x="0.5" y="0.5" width="917" height="47" rx="4"></rect>
                        <g id="Content" transform="translate(8.000000, 9.000000)" fill="#6A767B" font-family="CenturyGothic, Century Gothic" font-size="21" font-weight="normal" line-spacing="24">
                            <text id="Text">
                                <tspan x="0" y="21">Select the digital asset to be transfered</tspan>
                            </text>
                        </g>
                    </g>
                    <text id="Label" font-family="CenturyGothic, Century Gothic" font-size="30" font-weight="normal" line-spacing="19" fill="#000000">
                        <tspan x="0" y="30">SELECT ASSET *</tspan>
                    </text>
                </g>
                <g id="Transfer" transform="translate(77.000000, 175.000000)">
                    <g id="Card" transform="translate(59.000000, 280.000000)">
                        <g id="Shadow">
                            <use fill="black" fill-opacity="1" filter="url(#filter-2)" xlink:href="#path-1"></use>
                            <use fill="#FFFFFF" fill-rule="evenodd" xlink:href="#path-1"></use>
                        </g>
                        <rect id="Background" fill="#FFFFFF" x="0" y="0" width="587" height="1" rx="0.5"></rect>
                        <rect id="Border-Color" x="0" y="0" width="587" height="1" rx="0.5"></rect>
                    </g>
                    <g id="Guarantee-Info" transform="translate(146.000000, 72.000000)">
                        <rect id="Boundary" x="0" y="0" width="575" height="40"></rect>
                        <text id="Sentence" font-family="CenturyGothic, Century Gothic" font-size="16" font-weight="normal" line-spacing="24" fill="#6A767B">
                            <tspan x="72" y="24">Transfer digital asset’s ownership requires 25 </tspan>
                            <tspan x="72" y="48">tokens.</tspan>
                        </text>
                        <g id="icon" transform="translate(36.000000, 10.000000)" fill="#7D8FA0">
                            <path d="M14,7 L13,7 L13,5 C13,2.24 10.76,0 8,0 C5.24,0 3,2.24 3,5 L3,7 L2,7 C0.9,7 0,7.9 0,9 L0,19 C0,20.1 0.9,21 2,21 L14,21 C15.1,21 16,20.1 16,19 L16,9 C16,7.9 15.1,7 14,7 L14,7 Z M8,16 C6.9,16 6,15.1 6,14 C6,12.9 6.9,12 8,12 C9.1,12 10,12.9 10,14 C10,15.1 9.1,16 8,16 L8,16 Z M11.1,7 L4.9,7 L4.9,5 C4.9,3.29 6.29,1.9 8,1.9 C9.71,1.9 11.1,3.29 11.1,5 L11.1,7 L11.1,7 Z" id="↳-icon-Color"></path>
                        </g>
                    </g>
                    <g id="Button">
                        <rect id="Button-Shadow" x="0" y="14" width="705" height="48" rx="24"></rect>
                        <rect id="Button-Color" fill="#EAC445" x="0" y="0" width="763" height="62" rx="24"></rect>
                        <text id="Button-Text" fill-rule="nonzero" font-family="CenturyGothic, Century Gothic" font-size="24" font-weight="normal" letter-spacing="1.71428571" fill="#000000">
                            <tspan x="117.466623" y="41">TRANSFER OWNERSHIP OF DIGITAL ASSET</tspan>
                        </text>
                    </g>
                </g>
                <g id="Question" transform="translate(0.000000, 106.000000)">
                    <mask id="mask-4" fill="white">
                        <use xlink:href="#path-3"></use>
                    </mask>
                    <g id="Mask">
                        <use fill="black" fill-opacity="1" filter="url(#filter-5)" xlink:href="#path-3"></use>
                        <rect stroke="#EAC445" stroke-width="1" stroke-linejoin="square" fill="#EBEDF0" fill-rule="evenodd" x="0.5" y="0.5" width="914" height="63.6428571" rx="10"></rect>
                    </g>
                    <text id="….." mask="url(#mask-4)" font-family="CenturyGothic, Century Gothic" font-size="24" font-weight="normal" fill="#000000">
                        <tspan x="55.3613445" y="36.8428571">IMAGE.PNG</tspan>
                    </text>
                </g>
                <g id="icon" transform="translate(559.000000, 27.000000)">
                    <rect id="Background-Focused" x="0" y="0" width="32" height="32" rx="4"></rect>
                    <g id="Chevron" transform="translate(310.000000, 49.000000)" fill="#ADAFB1">
                        <path d="M10.1610738,0.314078503 L5.99463087,4.48052146 L1.82818792,0.314078503 C1.62756346,0.113001806 1.35518673,0 1.07114094,0 C0.78709515,0 0.514718417,0.113001806 0.31409396,0.314078503 C-0.104697987,0.732870449 -0.104697987,1.40938052 0.31409396,1.82817246 L5.24295302,6.75703152 C5.66174497,7.17582347 6.33825503,7.17582347 6.75704698,6.75703152 L11.685906,1.82817246 C12.104698,1.40938052 12.104698,0.732870449 11.685906,0.314078503 C11.2671141,-0.0939751884 10.5798658,-0.104713443 10.1610738,0.314078503 L10.1610738,0.314078503 Z" id="↳-icon-Color"></path>
                    </g>
                </g>
            </g>
        </g>
    </g>
</svg>